<?xml version="1.0" standalone="no"?>
<!DOCTYPE svg PUBLIC "-//W3C//DTD SVG 20010904//EN"
 "http://www.w3.org/TR/2001/REC-SVG-20010904/DTD/svg10.dtd">
<svg version="1.0" xmlns="http://www.w3.org/2000/svg"
 width="512.000000pt" height="512.000000pt" viewBox="0 0 512.000000 512.000000"
 preserveAspectRatio="xMidYMid meet">

<g transform="translate(0.000000,512.000000) scale(0.100000,-0.100000)"
fill="#000000" stroke="none">
<path d="M887 3523 c-4 -3 -7 -307 -7 -675 l0 -668 1680 0 1680 0 -2 673 -3
672 -1671 3 c-919 1 -1674 -1 -1677 -5z"/>
<path d="M7 2928 c60 -77 493 -659 493 -663 0 -3 -108 -149 -241 -326 -132
-176 -243 -327 -246 -335 -4 -12 74 -14 598 -12 l604 3 3 207 2 208 -252 2
-253 3 -3 463 -2 462 -356 0 c-284 0 -354 -3 -347 -12z"/>
<path d="M4408 2478 l-3 -463 -292 -3 -293 -2 0 -210 0 -210 646 0 c560 0 645
2 641 14 -3 8 -114 159 -246 335 -133 177 -241 323 -241 326 0 4 433 586 493
663 7 9 -63 12 -347 12 l-356 0 -2 -462z"/>
</g>
</svg>
