<?xml version="1.0" standalone="no"?>
<!DOCTYPE svg PUBLIC "-//W3C//DTD SVG 20010904//EN"
 "http://www.w3.org/TR/2001/REC-SVG-20010904/DTD/svg10.dtd">
<svg version="1.0" xmlns="http://www.w3.org/2000/svg"
 width="256.000000pt" height="256.000000pt" viewBox="0 0 256.000000 256.000000"
 preserveAspectRatio="xMidYMid meet">

<g transform="translate(0.000000,256.000000) scale(0.100000,-0.100000)"
fill="#000000" stroke="none">
<path d="M1266 2470 c-63 -16 -153 -70 -197 -117 -22 -24 -55 -74 -72 -111
-29 -61 -32 -76 -32 -163 0 -90 2 -99 37 -171 45 -91 103 -147 196 -191 60
-29 76 -32 162 -32 86 0 101 3 162 32 93 44 151 100 196 191 35 72 37 81 37
172 0 91 -2 100 -37 172 -68 136 -188 217 -336 224 -42 2 -94 -1 -116 -6z
m-93 -144 c-10 -13 -22 -22 -27 -19 -5 3 2 14 15 24 32 24 33 24 12 -5z m143
-94 c-9 -9 -86 18 -86 30 0 6 19 29 43 52 l42 40 3 -58 c2 -32 1 -61 -2 -64z
m159 55 c21 -30 19 -34 -16 -46 -56 -19 -59 -17 -59 50 l0 60 30 -21 c16 -12
36 -31 45 -43z m105 27 c0 -1 -4 -5 -9 -8 -5 -3 -16 6 -26 20 l-16 25 25 -16
c14 -10 26 -19 26 -21z m-478 -135 c-16 -67 -15 -146 2 -202 7 -25 11 -48 8
-51 -14 -15 -31 -2 -48 36 -28 63 -26 188 5 247 16 31 26 40 34 32 8 -8 7 -25
-1 -62z m565 -18 c19 -66 13 -140 -16 -206 -17 -38 -24 -45 -35 -36 -11 9 -11
19 0 63 18 66 18 130 1 195 -10 37 -11 55 -3 63 15 15 33 -12 53 -79z m-437 4
c23 -8 53 -15 66 -15 23 0 24 -3 24 -67 l0 -68 -68 -16 c-37 -9 -68 -15 -70
-14 -14 12 -12 195 2 195 2 0 23 -7 46 -15z m316 -31 c6 -39 0 -142 -8 -149
-2 -1 -33 5 -70 14 l-68 16 0 65 0 65 63 16 c34 9 65 17 69 17 4 1 10 -19 14
-44z m-226 -265 l0 -60 -30 21 c-29 21 -60 58 -60 71 0 9 48 27 73 28 14 1 17
-8 17 -60z m164 41 c12 -12 -15 -53 -54 -80 l-30 -21 0 61 0 62 38 -7 c20 -3
41 -10 46 -15z m-310 -76 l19 -26 -27 17 c-14 10 -26 21 -26 26 0 16 15 9 34
-17z m404 12 c-2 0 -14 -10 -27 -21 l-25 -20 20 26 c10 15 23 25 27 22 5 -3 7
-6 5 -7z"/>
<path d="M741 2424 c-113 -30 -318 -164 -375 -245 l-15 -22 -39 26 c-44 31
-55 33 -73 11 -10 -13 -11 -48 0 -197 7 -100 17 -187 23 -194 6 -7 20 -13 32
-13 33 0 323 99 336 115 18 22 4 47 -45 80 -24 17 -45 36 -45 43 0 20 98 119
165 167 100 71 203 115 271 115 38 0 67 21 63 45 -5 24 -59 61 -108 75 -50 14
-126 11 -190 -6z m0 -112 c-133 -74 -301 -246 -301 -308 0 -7 14 -22 31 -35
17 -12 27 -25 22 -29 -4 -4 -43 -19 -85 -33 l-77 -25 -5 31 c-18 118 -13 193
9 157 14 -23 45 -8 78 38 66 89 202 188 313 227 104 37 108 30 15 -23z"/>
<path d="M495 1788 c-185 -35 -355 -200 -400 -389 -76 -325 174 -640 509 -639
94 0 242 48 297 96 13 12 22 8 70 -33 30 -25 71 -57 92 -71 41 -27 44 -37 21
-70 -18 -26 -15 -61 7 -75 23 -14 368 72 383 96 9 14 -4 47 -71 175 -76 146
-84 157 -110 157 -23 0 -32 -8 -53 -47 -14 -26 -29 -50 -32 -54 -8 -7 -77 32
-122 69 l-29 23 27 68 c36 89 44 205 22 300 -65 274 -332 447 -611 394z m-101
-154 c-30 -31 -54 -61 -54 -65 0 -15 -27 -10 -41 7 -12 14 -9 20 16 41 29 23
113 72 127 73 3 0 -18 -25 -48 -56z m414 32 c26 -14 60 -36 77 -49 25 -21 28
-27 16 -41 -20 -24 -33 -20 -60 19 -13 20 -39 49 -58 65 -41 36 -37 37 25 6z
m-248 -107 l0 -101 -32 7 c-57 11 -128 39 -128 49 0 13 136 146 149 146 7 0
11 -36 11 -101z m138 67 c43 -35 102 -102 102 -117 0 -8 -72 -33 -127 -44
l-33 -7 0 101 c0 56 3 101 8 101 4 0 26 -16 50 -34z m-430 -129 c22 -23 22
-25 7 -68 -27 -75 -29 -183 -7 -269 l20 -75 -21 -22 c-11 -13 -24 -23 -29 -23
-13 0 -54 90 -68 149 -22 95 -1 232 48 309 18 28 23 28 50 -1z m729 -28 c32
-64 46 -144 40 -219 -6 -61 -33 -160 -44 -160 -3 0 -15 12 -27 27 -19 25 -21
41 -22 148 0 87 -5 132 -17 164 -17 43 -17 45 5 68 28 30 38 26 65 -28z m-575
-59 c31 -11 74 -22 97 -26 l41 -7 0 -97 0 -97 -41 -7 c-23 -4 -66 -15 -96 -26
-31 -11 -59 -17 -64 -15 -15 10 -31 121 -26 180 5 54 21 115 30 115 1 0 28 -9
59 -20z m436 -36 c7 -27 11 -58 9 -69 -3 -15 -6 -12 -12 12 -10 44 -38 68 -63
54 -30 -16 -47 -69 -47 -143 0 -56 -3 -67 -15 -63 -8 2 -32 7 -52 11 l-38 6 0
98 0 97 60 12 c33 7 75 18 93 26 17 8 37 13 42 11 6 -1 16 -25 23 -52z m115
-380 c72 -65 173 -130 226 -145 46 -14 53 -10 87 46 9 16 16 6 53 -63 30 -59
38 -83 29 -87 -12 -4 -98 -25 -161 -39 -26 -6 -27 -5 -18 13 6 11 11 24 11 29
0 6 -37 35 -83 66 -132 87 -253 227 -282 326 -5 15 10 1 39 -37 26 -34 70 -83
99 -109z m-413 6 c0 -55 -3 -100 -7 -100 -23 0 -153 127 -153 150 0 8 8 11 90
35 73 22 70 26 70 -85z m162 84 c86 -25 87 -43 4 -121 -36 -35 -71 -63 -76
-63 -6 0 -10 41 -10 100 0 70 4 100 12 100 6 0 38 -7 70 -16z m-382 -94 c0 -5
24 -34 54 -65 30 -30 52 -55 50 -55 -12 0 -102 52 -129 73 -25 21 -28 27 -16
41 15 17 41 22 41 6z m514 -46 c3 -9 6 -17 6 -20 0 -4 -96 -54 -103 -54 -7 0
77 87 84 89 4 0 10 -6 13 -15z"/>
<path d="M1793 1745 c-92 -20 -196 -79 -269 -152 -217 -218 -217 -569 2 -788
270 -270 728 -194 894 149 206 425 -164 891 -627 791z m441 -184 l26 -27 -23
-22 -24 -23 -28 41 c-15 22 -47 58 -71 80 -24 22 -44 43 -44 46 0 11 139 -69
164 -95z m-498 58 c-20 -17 -52 -53 -72 -80 l-37 -50 -24 23 -25 23 39 33 c40
35 119 81 141 82 7 0 -3 -14 -22 -31z m144 -114 l0 -116 -37 7 c-47 8 -143 43
-143 52 0 31 140 167 178 172 1 0 2 -52 2 -115z m182 42 c53 -51 82 -92 74
-105 -6 -9 -87 -36 -143 -47 l-33 -7 0 116 0 117 29 -15 c15 -8 48 -35 73 -59z
m-478 -146 c-13 -32 -34 -117 -34 -138 0 -21 -5 -23 -55 -23 -30 0 -55 4 -55
8 0 25 33 130 55 172 l26 51 35 -27 c24 -19 33 -32 28 -43z m762 17 c25 -49
54 -137 54 -165 0 -9 -17 -13 -54 -13 l-53 0 -6 44 c-4 24 -13 63 -22 87 l-15
44 33 27 c17 15 33 28 34 28 2 0 15 -24 29 -52z m-635 -67 c24 -11 72 -25 107
-31 61 -12 62 -13 62 -46 l0 -34 -126 0 -127 0 7 39 c6 41 23 91 29 91 3 0 24
-9 48 -19z m479 -7 c6 -14 13 -43 16 -65 l7 -39 -127 0 -126 0 0 33 0 34 78
17 c42 9 88 23 102 31 34 20 39 19 50 -11z m-640 -206 c0 -22 21 -107 34 -139
5 -11 -4 -24 -28 -43 l-35 -27 -24 48 c-26 51 -42 98 -51 151 l-5 32 54 0 c50
0 55 -2 55 -22z m330 -12 c0 -34 -1 -34 -60 -44 -33 -6 -81 -20 -106 -31 -25
-12 -50 -19 -54 -16 -8 5 -30 84 -30 109 0 14 19 16 125 16 l125 0 0 -34z
m330 18 c0 -25 -22 -104 -30 -109 -4 -3 -29 4 -54 16 -25 11 -73 25 -106 31
-59 10 -60 10 -60 44 l0 34 125 0 c106 0 125 -2 125 -16z m190 3 c0 -25 -32
-122 -56 -170 l-25 -48 -35 27 c-24 19 -33 32 -28 43 13 32 34 117 34 139 0
20 5 22 55 22 39 0 55 -4 55 -13z m-520 -252 l0 -116 -22 12 c-57 30 -158 133
-158 161 0 11 124 53 168 57 9 1 12 -28 12 -114z m198 88 c29 -9 55 -20 58
-25 14 -22 -87 -132 -153 -167 l-23 -12 0 116 0 117 33 -7 c17 -3 56 -13 85
-22z m-363 -180 c29 -29 48 -53 43 -53 -18 0 -109 51 -143 81 l-36 32 23 24
22 24 20 -28 c11 -15 43 -52 71 -80z m523 39 c-26 -27 -84 -63 -143 -88 l-40
-16 51 45 c28 25 63 64 79 86 l28 42 24 -23 23 -22 -22 -24z"/>
<path d="M92 748 c-17 -17 -17 -599 0 -616 17 -17 399 -17 416 0 7 7 12 25 12
40 l0 28 108 0 107 0 90 -60 90 -60 312 0 312 0 48 41 c26 23 103 93 171 156
119 112 122 116 122 158 0 37 -5 47 -35 74 -43 38 -89 41 -131 9 -16 -12 -61
-52 -100 -90 l-72 -68 -110 0 -111 0 6 33 c3 22 -1 46 -12 66 -14 29 -44 46
-211 127 l-195 94 -195 0 -194 0 0 28 c0 15 -5 33 -12 40 -17 17 -399 17 -416
0z m348 -308 l0 -240 -140 0 -140 0 0 240 0 240 140 0 140 0 0 -240z m622 79
c95 -45 177 -85 182 -90 12 -11 -9 -58 -29 -66 -9 -3 -69 19 -136 51 -66 31
-124 56 -129 56 -6 0 -16 -15 -24 -32 l-13 -33 130 -62 130 -63 198 0 199 0
99 90 c54 50 103 90 109 90 5 0 15 -6 21 -14 10 -12 -15 -39 -135 -150 l-147
-136 -288 0 -288 0 -92 60 -91 60 -119 0 -119 0 0 160 0 160 185 0 185 0 172
-81z"/>
</g>
</svg>
