<?xml version="1.0" standalone="no"?>
<!DOCTYPE svg PUBLIC "-//W3C//DTD SVG 20010904//EN"
 "http://www.w3.org/TR/2001/REC-SVG-20010904/DTD/svg10.dtd">
<svg version="1.0" xmlns="http://www.w3.org/2000/svg"
 width="512.000000pt" height="512.000000pt" viewBox="0 0 512.000000 512.000000"
 preserveAspectRatio="xMidYMid meet">

<g transform="translate(0.000000,512.000000) scale(0.100000,-0.100000)"
fill="#000000" stroke="none">
<path d="M2463 5105 c-118 -32 -205 -105 -257 -215 -29 -60 -31 -75 -36 -204
l-5 -139 -83 -24 c-541 -155 -932 -609 -1056 -1223 -37 -184 -46 -389 -46
-1095 l0 -630 -260 -260 -260 -260 0 -132 0 -133 2100 0 2100 0 0 133 0 132
-260 260 -260 260 0 630 c0 706 -9 911 -46 1095 -124 614 -515 1068 -1056
1223 l-83 24 -5 139 c-5 129 -7 144 -36 204 -34 72 -105 150 -165 180 -52 27
-144 50 -194 49 -22 0 -64 -7 -92 -14z"/>
<path d="M2040 482 c0 -109 59 -232 157 -329 204 -203 522 -203 726 0 98 97
157 220 157 329 l0 48 -520 0 -520 0 0 -48z"/>
</g>
</svg>
