<?xml version="1.0" standalone="no"?>
<!DOCTYPE svg PUBLIC "-//W3C//DTD SVG 20010904//EN"
 "http://www.w3.org/TR/2001/REC-SVG-20010904/DTD/svg10.dtd">
<svg version="1.0" xmlns="http://www.w3.org/2000/svg"
 width="860.000000pt" height="900.000000pt" viewBox="0 0 860.000000 900.000000"
 preserveAspectRatio="xMidYMid meet">

<g transform="translate(0.000000,900.000000) scale(0.100000,-0.100000)"
fill="#000000" stroke="none">
<path d="M3995 8589 c-821 -68 -1563 -363 -2205 -875 -173 -138 -465 -430
-604 -604 -700 -874 -1002 -1973 -845 -3075 159 -1119 785 -2117 1724 -2751
1247 -842 2865 -911 4180 -179 166 92 404 253 565 381 173 138 466 431 602
602 461 578 745 1231 847 1947 157 1104 -143 2195 -847 3077 -136 171 -429
464 -602 602 -612 490 -1319 781 -2105 866 -136 15 -575 21 -710 9z m-20
-1490 c204 -38 489 -92 635 -119 900 -169 1133 -213 1200 -225 362 -65 518
-99 546 -117 77 -52 98 -132 69 -265 -76 -353 -262 -1043 -404 -1503 -33 -107
-59 -195 -57 -197 1 -1 168 153 372 343 203 190 386 354 406 365 89 46 208 6
255 -86 22 -42 21 -122 -3 -167 -12 -23 -266 -268 -668 -645 l-650 -608 -101
-235 c-298 -693 -582 -1137 -896 -1400 -193 -162 -418 -238 -618 -211 -182 26
-308 87 -414 201 -74 80 -127 179 -158 296 -30 113 -37 340 -15 493 10 62 16
114 14 115 -4 4 -338 194 -628 358 -529 300 -1096 615 -1219 678 l-44 22 6
-148 c7 -149 31 -341 65 -508 l17 -88 310 -177 c171 -98 544 -311 830 -475
312 -178 533 -311 552 -331 118 -124 4 -335 -169 -312 -24 3 -323 168 -890
492 -469 268 -873 500 -899 516 -25 16 -55 46 -66 67 -23 41 -80 300 -109 497
-12 82 -18 183 -18 320 -1 179 2 208 22 278 39 136 86 203 175 248 57 30 157
36 228 15 57 -16 444 -224 974 -523 730 -412 1172 -665 1204 -691 79 -64 84
-112 37 -327 -35 -160 -37 -336 -6 -438 36 -116 106 -175 232 -197 77 -14 158
2 240 47 138 75 323 281 472 522 91 149 98 161 92 161 -2 0 -87 -77 -188 -171
-101 -94 -201 -180 -223 -190 -80 -37 -178 -14 -231 56 -36 47 -46 143 -20
197 13 27 739 719 1047 998 44 39 55 59 90 150 148 388 316 907 455 1400 62
218 194 725 194 743 0 5 57 -6 -765 147 -655 122 -786 146 -1282 240 -150 28
-282 50 -294 48 -23 -3 7 73 -638 -1618 -150 -393 -282 -729 -294 -746 -34
-52 -82 -78 -151 -82 -54 -3 -66 0 -107 26 -60 39 -93 103 -87 170 3 29 131
376 331 897 179 468 394 1028 477 1245 83 217 159 410 167 428 18 38 76 81
125 92 41 10 26 12 473 -71z m765 -944 c851 -264 783 -240 828 -289 88 -95 57
-243 -62 -297 -75 -34 -4 -52 -831 206 -345 107 -615 196 -636 210 -65 42 -97
146 -68 222 27 72 114 127 189 119 25 -3 286 -79 580 -171z m2464 -327 c26 -8
60 -31 92 -63 65 -64 86 -124 82 -226 l-3 -74 -275 0 -275 0 -3 55 c-14 231
162 373 382 308z m-3149 -422 c61 -19 351 -109 645 -201 303 -94 551 -177 571
-190 108 -70 103 -239 -9 -316 -66 -45 -112 -37 -532 95 -206 64 -386 121
-400 126 -14 5 -137 43 -275 86 -157 48 -262 86 -283 101 -118 88 -100 263 33
325 53 25 109 19 250 -26z m253 -847 c356 -110 665 -211 687 -224 129 -74 111
-282 -28 -334 -71 -27 -17 -42 -1325 365 -162 50 -212 99 -212 209 0 62 15 97
57 136 85 78 71 81 821 -152z"/>
</g>
</svg>
