<?xml version="1.0" standalone="no"?>
<!DOCTYPE svg PUBLIC "-//W3C//DTD SVG 20010904//EN"
 "http://www.w3.org/TR/2001/REC-SVG-20010904/DTD/svg10.dtd">
<svg version="1.0" xmlns="http://www.w3.org/2000/svg"
 width="512.000000pt" height="512.000000pt" viewBox="0 0 512.000000 512.000000"
 preserveAspectRatio="xMidYMid meet">

<g transform="translate(0.000000,512.000000) scale(0.100000,-0.100000)"
fill="#000000" stroke="none">
<path d="M500 5105 c-343 -77 -566 -434 -480 -769 33 -128 74 -200 170 -296
139 -140 282 -196 475 -188 116 6 212 35 308 94 l59 37 314 -314 c298 -298
314 -316 314 -351 0 -46 40 -83 81 -74 22 4 38 -8 112 -82 48 -48 87 -90 87
-94 0 -4 -18 -32 -39 -63 -86 -122 -134 -283 -134 -445 0 -162 48 -323 134
-445 21 -31 39 -59 39 -63 0 -4 -328 -335 -729 -736 l-728 -728 -57 21 c-152
57 -321 -11 -393 -157 -37 -75 -40 -191 -6 -263 30 -66 86 -124 151 -156 48
-24 70 -28 137 -28 67 0 89 4 137 28 144 71 213 239 158 388 l-22 62 590 590
590 590 43 -36 c51 -44 94 -49 127 -14 35 37 29 74 -20 119 l-42 39 84 84 c47
47 88 85 92 85 4 0 30 -16 56 -35 27 -19 78 -48 113 -65 62 -29 203 -70 241
-70 17 0 18 -16 18 -333 l0 -334 -42 -12 c-104 -30 -207 -130 -248 -238 -26
-70 -29 -184 -7 -256 72 -230 340 -343 557 -232 219 111 282 402 129 595 -45
57 -124 113 -186 131 l-43 12 0 134 0 133 38 0 c111 2 181 43 167 99 -12 51
-40 64 -127 56 l-78 -7 0 124 0 123 78 17 c195 40 359 143 478 301 25 34 50
61 54 60 4 -1 55 -25 114 -52 l107 -50 -18 -28 c-9 -15 -34 -51 -55 -79 -45
-60 -48 -95 -13 -129 49 -50 84 -33 161 80 32 47 61 85 64 85 4 0 101 -45 215
-100 205 -99 207 -101 200 -128 -16 -67 -17 -208 -1 -270 59 -233 235 -389
477 -425 99 -14 212 7 316 58 205 101 329 341 296 571 -14 97 -36 129 -88 129
-29 0 -42 -6 -57 -26 -19 -24 -19 -31 -7 -103 23 -138 -11 -255 -105 -355
-196 -207 -530 -154 -657 105 -57 115 -50 265 17 380 35 59 115 131 182 162
51 24 69 27 167 27 104 0 114 -2 177 -32 79 -39 87 -40 122 -12 34 27 36 77 4
106 -62 56 -183 93 -308 93 -154 0 -285 -57 -396 -171 l-67 -70 -46 20 c-49
21 -734 351 -738 355 -2 1 6 38 18 82 27 102 29 270 6 367 -24 95 -71 205
-118 272 -21 31 -39 59 -39 63 0 4 39 46 86 92 l86 85 26 -35 c73 -95 112
-111 157 -65 37 36 31 66 -26 141 l-51 67 200 200 200 200 64 -29 c56 -26 74
-29 163 -29 88 0 107 3 158 27 164 77 259 255 228 425 -31 168 -149 288 -316
323 -170 35 -347 -55 -427 -218 -31 -62 -33 -74 -33 -167 0 -89 3 -107 29
-163 l29 -63 -339 -340 c-186 -186 -342 -339 -346 -339 -4 0 -32 18 -63 39
-122 86 -283 134 -445 134 -162 0 -323 -48 -445 -134 -31 -21 -59 -39 -63 -39
-4 0 -45 38 -91 84 -82 82 -83 84 -67 107 37 53 6 119 -56 119 -17 0 -40 -8
-50 -17 -18 -16 -32 -4 -335 299 l-316 316 37 59 c76 123 110 282 91 428 -11
95 -81 138 -133 82 -21 -22 -22 -30 -16 -128 5 -83 3 -116 -11 -164 -76 -264
-333 -417 -588 -350 -251 65 -408 316 -356 567 49 235 278 407 512 385 94 -9
159 -33 240 -87 41 -28 85 -50 96 -50 31 0 71 44 71 76 0 54 -111 134 -250
181 -94 32 -235 39 -330 18z m3659 -791 c106 -31 182 -150 167 -261 -27 -200
-273 -285 -415 -142 -132 132 -73 354 109 410 40 12 83 10 139 -7z m-1431
-1130 c161 -42 322 -171 399 -320 56 -107 76 -188 76 -304 0 -176 -64 -330
-188 -455 -125 -124 -279 -188 -455 -188 -176 0 -331 64 -455 188 -105 105
-165 226 -185 375 -32 236 80 483 279 614 161 106 346 137 529 90z m-81 -2239
c96 -40 155 -126 155 -224 0 -143 -102 -245 -242 -245 -268 0 -337 361 -90
468 46 20 131 20 177 1z m-2260 -481 c83 -40 117 -149 71 -229 -26 -45 -93
-85 -143 -85 -17 0 -51 10 -75 23 -51 25 -90 88 -90 145 0 61 51 133 110 155
30 11 93 7 127 -9z"/>
<path d="M2516 3736 c-33 -32 -34 -75 -3 -103 18 -17 41 -23 118 -28 106 -8
134 0 149 41 12 31 -2 68 -32 88 -13 8 -63 17 -115 21 -90 7 -93 6 -117 -19z"/>
<path d="M2153 3686 c-82 -31 -109 -49 -117 -81 -8 -31 12 -68 45 -86 17 -9
38 -5 112 21 51 18 100 42 110 52 23 27 22 73 -3 98 -26 26 -69 25 -147 -4z"/>
<path d="M2973 3645 c-26 -18 -36 -56 -24 -88 10 -26 167 -117 201 -117 33 0
70 39 70 74 0 41 -24 64 -113 110 -75 39 -102 44 -134 21z"/>
<path d="M1508 3111 c-25 -20 -88 -163 -88 -201 0 -28 44 -70 73 -70 39 0 63
29 102 124 40 99 38 132 -11 155 -35 15 -48 14 -76 -8z"/>
<path d="M3571 2954 c-26 -33 -26 -30 4 -139 30 -115 56 -139 120 -115 43 17
49 52 24 154 -12 49 -30 97 -40 107 -29 29 -83 25 -108 -7z"/>
<path d="M1403 2668 c-36 -17 -47 -59 -39 -156 5 -77 9 -90 32 -109 40 -36 85
-29 108 16 10 19 12 53 8 124 -4 89 -7 99 -30 117 -27 22 -46 24 -79 8z"/>
<path d="M3625 2500 c-20 -22 -59 -222 -50 -258 6 -26 57 -52 87 -44 34 8 56
51 72 140 9 48 16 99 16 113 0 57 -86 92 -125 49z"/>
<path d="M1465 2195 c-14 -13 -25 -33 -25 -44 0 -28 64 -165 89 -190 44 -44
121 -16 121 44 0 41 -65 180 -93 200 -31 22 -65 18 -92 -10z"/>
<path d="M3100 1665 c-41 -25 -81 -53 -87 -62 -33 -44 5 -113 61 -113 28 0
131 55 174 93 31 28 31 90 0 111 -36 25 -68 19 -148 -29z"/>
<path d="M2111 1554 c-24 -31 -26 -43 -9 -78 12 -27 64 -51 166 -77 48 -12 54
-11 80 8 37 27 42 81 10 109 -24 22 -158 64 -201 64 -16 0 -34 -10 -46 -26z"/>
</g>
</svg>
